<svg width="238" height="27" viewBox="0 0 238 27" fill="none" xmlns="http://www.w3.org/2000/svg">
<path d="M10.98 26.504C8.412 26.504 6.264 25.952 4.536 24.848C2.832 23.72 1.62 22.196 0.9 20.276L5.868 17.396C6.876 19.724 8.64 20.888 11.16 20.888C13.44 20.888 14.58 20.204 14.58 18.836C14.58 18.092 14.208 17.516 13.464 17.108C12.744 16.676 11.376 16.184 9.36 15.632C8.304 15.344 7.38 15.02 6.588 14.66C5.796 14.3 5.016 13.832 4.248 13.256C3.504 12.656 2.928 11.912 2.52 11.024C2.136 10.136 1.944 9.116 1.944 7.964C1.944 5.636 2.772 3.776 4.428 2.384C6.108 0.991999 8.1 0.295998 10.404 0.295998C12.468 0.295998 14.292 0.787998 15.876 1.772C17.46 2.732 18.708 4.136 19.62 5.984L14.76 8.828C14.304 7.868 13.74 7.148 13.068 6.668C12.396 6.164 11.508 5.912 10.404 5.912C9.54 5.912 8.868 6.104 8.388 6.488C7.932 6.848 7.704 7.292 7.704 7.82C7.704 8.444 7.992 8.984 8.568 9.44C9.168 9.896 10.392 10.4 12.24 10.952C13.248 11.264 14.028 11.516 14.58 11.708C15.132 11.9 15.828 12.224 16.668 12.68C17.532 13.112 18.18 13.58 18.612 14.084C19.068 14.564 19.464 15.212 19.8 16.028C20.16 16.82 20.34 17.732 20.34 18.764C20.34 21.164 19.476 23.06 17.748 24.452C16.02 25.82 13.764 26.504 10.98 26.504ZM48.0488 0.799998L39.5888 16.316V26H33.8288V16.316L25.3687 0.799998H31.9208L36.7088 10.52L41.4968 0.799998H48.0488ZM69.6445 0.799998H75.4045V26H71.0845L61.3645 12.32V26H55.6045V0.799998H59.9245L69.6445 14.48V0.799998ZM102.042 0.799998V6.344H95.5617V26H89.8017V6.344H83.3217V0.799998H102.042ZM123.643 0.799998H129.403V26H123.643V15.992H115.723V26H109.963V0.799998H115.723V10.448H123.643V0.799998ZM155.149 26L153.889 22.04H144.529L143.269 26H136.969L145.537 0.799998H152.881L161.449 26H155.149ZM146.257 16.64H152.161L149.209 7.388L146.257 16.64ZM178.537 0.799998C181.009 0.799998 183.097 1.64 184.801 3.32C186.505 5 187.357 7.04 187.357 9.44C187.357 11.84 186.505 13.88 184.801 15.56C183.097 17.24 181.009 18.08 178.537 18.08H174.757V26H168.997V0.799998H178.537ZM178.537 12.68C179.425 12.68 180.157 12.368 180.733 11.744C181.309 11.12 181.597 10.352 181.597 9.44C181.597 8.528 181.309 7.76 180.733 7.136C180.157 6.512 179.425 6.2 178.537 6.2H174.757V12.68H178.537ZM203.749 26.504C201.181 26.504 199.033 25.952 197.305 24.848C195.601 23.72 194.389 22.196 193.669 20.276L198.637 17.396C199.645 19.724 201.409 20.888 203.929 20.888C206.209 20.888 207.349 20.204 207.349 18.836C207.349 18.092 206.977 17.516 206.233 17.108C205.513 16.676 204.145 16.184 202.129 15.632C201.073 15.344 200.149 15.02 199.357 14.66C198.565 14.3 197.785 13.832 197.017 13.256C196.273 12.656 195.697 11.912 195.289 11.024C194.905 10.136 194.713 9.116 194.713 7.964C194.713 5.636 195.541 3.776 197.197 2.384C198.877 0.991999 200.869 0.295998 203.173 0.295998C205.237 0.295998 207.061 0.787998 208.645 1.772C210.229 2.732 211.477 4.136 212.389 5.984L207.529 8.828C207.073 7.868 206.509 7.148 205.837 6.668C205.165 6.164 204.277 5.912 203.173 5.912C202.309 5.912 201.637 6.104 201.157 6.488C200.701 6.848 200.473 7.292 200.473 7.82C200.473 8.444 200.761 8.984 201.337 9.44C201.937 9.896 203.161 10.4 205.009 10.952C206.017 11.264 206.797 11.516 207.349 11.708C207.901 11.9 208.597 12.224 209.437 12.68C210.301 13.112 210.949 13.58 211.381 14.084C211.837 14.564 212.233 15.212 212.569 16.028C212.929 16.82 213.109 17.732 213.109 18.764C213.109 21.164 212.245 23.06 210.517 24.452C208.789 25.82 206.533 26.504 203.749 26.504ZM226.972 20.456H237.052V26H221.212V0.799998H236.872V6.344H226.972V10.52H235.972V15.992H226.972V20.456Z" fill="white"/>
</svg>
